<?xml version="1.0" encoding="utf-8"?>
<!-- Generator: Adobe Illustrator 17.1.0, SVG Export Plug-In . SVG Version: 6.00 Build 0)  -->
<!DOCTYPE svg PUBLIC "-//W3C//DTD SVG 1.1//EN" "http://www.w3.org/Graphics/SVG/1.1/DTD/svg11.dtd">
<svg version="1.1" id="Layer_1" xmlns="http://www.w3.org/2000/svg" xmlns:xlink="http://www.w3.org/1999/xlink" x="0px" y="0px"
	 viewBox="0 0 222 48" enable-background="new 0 0 222 48" xml:space="preserve">
<g>
	<g>
		<path fill="#FFFFFF" d="M65,46.6c-4.5,0-7.8-1.1-9.9-3.4c-2.1-2.2-3.2-6-3.4-11.3l9.4-1.2c0,1.5,0.1,2.7,0.2,3.8
			c0.2,1,0.4,1.8,0.7,2.3c0.3,0.5,0.6,0.9,1,1.1c0.4,0.2,0.8,0.3,1.2,0.3c1.2,0,1.9-0.9,1.9-2.7c0-1.7-0.4-3.2-1.2-4.5
			c-0.8-1.3-2.1-2.6-3.8-4.1l-2.9-2.4c-1-0.9-1.9-1.7-2.5-2.4c-0.7-0.7-1.3-1.5-2-2.5c-0.7-1-1.2-2.1-1.5-3.3
			c-0.3-1.2-0.5-2.6-0.5-4.1c0-3.9,1.2-6.9,3.5-9c2.3-2.1,5.6-3.2,9.7-3.2c7.4,0,11.1,4.4,11.2,13.2l-9.6,1c0-1.2,0-2.1,0-2.7
			c0-0.6-0.1-1.2-0.2-1.8c-0.1-0.6-0.3-1.1-0.6-1.3C65.5,8.1,65.1,8,64.7,8c-0.7,0-1.2,0.4-1.5,1.1c-0.3,0.7-0.5,1.4-0.5,2.1
			c0,0.4,0,0.8,0.1,1.1c0.1,0.4,0.1,0.7,0.2,1c0.1,0.3,0.2,0.6,0.4,0.9c0.2,0.3,0.3,0.6,0.4,0.8c0.1,0.2,0.3,0.5,0.5,0.8
			c0.3,0.3,0.5,0.6,0.5,0.7c0.1,0.1,0.3,0.4,0.7,0.7s0.6,0.5,0.6,0.6c0.1,0.1,0.3,0.3,0.7,0.6c0.4,0.4,0.6,0.5,0.7,0.6l2.6,2.3
			c1.1,1,2,1.9,2.8,2.8c0.8,0.9,1.5,1.9,2.2,3c0.7,1.1,1.2,2.4,1.6,3.7c0.4,1.3,0.5,2.8,0.5,4.3c0,3.2-1.1,6-3.3,8.2
			C71.6,45.5,68.7,46.6,65,46.6z"/>
		<path fill="#FFFFFF" d="M109.4,46.6c-2.3,0-4.3-0.4-6-1.1c-1.7-0.8-3-1.9-3.9-3.3c-0.9-1.4-1.6-3.1-2.1-4.9
			c-0.4-1.8-0.6-3.9-0.6-6.3V15.7c0-2.4,0.2-4.6,0.7-6.5c0.5-1.9,1.3-3.5,2.3-4.9c1.1-1.4,2.5-2.5,4.3-3.2c1.8-0.7,4-1.1,6.6-1.1
			c2.1,0,3.9,0.2,5.4,0.7c1.6,0.4,2.9,1,3.9,1.8s1.9,1.7,2.5,2.8c0.7,1.1,1.1,2.3,1.4,3.6c0.3,1.3,0.4,1.1,0.4,2.7v5.7h-10.9v-6.8
			c0-0.5,0,0.7,0,0.4c0-0.3-0.1-0.7-0.2-1.2c-0.1-0.5-0.2-0.8-0.4-1.1c-0.2-0.3-0.4-0.5-0.8-0.7c-0.3-0.2-0.8-0.3-1.3-0.3
			c-0.6,0-1.1,0.1-1.5,0.4c-0.4,0.3-0.7,0.7-0.9,1.2c-0.2,0.5-0.3,1-0.3,1.4c-0.1,0.4-0.1,1-0.1,1.6v22.1c0,0.6,0,1.1,0.1,1.6
			c0.1,0.5,0.2,1,0.4,1.4c0.2,0.5,0.5,0.8,1,1.1c0.4,0.3,0.9,0.4,1.5,0.4c0.8,0,1.4-0.3,1.9-0.8c0.5-0.5,0.9-1.1,1-1.7
			c0.2-0.6,0.3-1.3,0.3-2.1v-6.7h-3.6v-6.3h13.6v24.6H117l-0.5-3.3C115.1,45.2,112.8,46.6,109.4,46.6z"/>
		<path fill="#FFFFFF" d="M144.6,45.9v-37H138V0.7h24.2v8.2h-6.6v37H144.6z"/>
		<path fill="#FFFFFF" d="M207.8,46.6c-2.6,0-4.8-0.3-6.6-0.9c-1.8-0.6-3.2-1.5-4.2-2.7c-1.1-1.2-1.8-2.7-2.2-4.4
			c-0.4-1.7-0.7-3.8-0.7-6.3V0.7h11v33.3c0,0.6,0,1.1,0.1,1.6c0.1,0.4,0.2,0.9,0.3,1.4c0.2,0.5,0.4,0.9,0.8,1.2
			c0.4,0.3,0.9,0.4,1.5,0.4c0.6,0,1.1-0.1,1.5-0.4c0.4-0.3,0.7-0.7,0.8-1.2c0.2-0.5,0.3-1,0.3-1.4c0-0.4,0.1-1,0.1-1.6V0.7h11v31.5
			c0,2.4-0.2,4.5-0.7,6.3c-0.5,1.7-1.2,3.2-2.2,4.4c-1,1.2-2.5,2.2-4.2,2.7C212.6,46.3,210.4,46.6,207.8,46.6z"/>
		<g>
			<g>
				<rect x="80.9" y="1" fill="#FFFFFF" width="11" height="44.9"/>
			</g>
		</g>
		<polygon fill="#FFFFFF" points="183.7,0.7 170.9,0.7 162.7,45.9 173.1,45.9 173.6,42.7 177.4,13.6 177.4,13.6 177.4,13.6 
			179.4,30.5 177.2,30.5 176.3,38.4 180.6,38.4 181.8,45.9 191.8,45.9 		"/>
	</g>
	<g>
		<path fill="#FFFFFF" d="M40.8,0H0.4l0.1,3.6c0.1,3.6,0.1,6.9,0.1,9.8v0c0,2.5,0,4.9,0.1,7.2c0.2,4.8,0.9,8.3,2.4,11.4
			c2.5,5.4,7.3,10,15.6,14.9l1.8,1l1.8-1c8.4-4.9,13.2-9.6,15.7-15c1.5-3.2,2.2-6.6,2.4-11.4c0.1-2.2,0.1-4.6,0.1-7.1
			c0-2.9,0-6.2,0.1-9.8L40.8,0z M38.6,3.5L38.6,3.5c-0.2,3.7-0.1,7-0.1,9.9c0,2.5,0,4.8-0.1,7c-0.2,4.6-0.9,7.8-2.2,10.7
			c-2.3,5-6.9,9.3-14.9,14.1l-0.7,0.4l-0.7-0.4c-7.9-4.7-12.5-9-14.8-14c-1.4-2.9-2-6.1-2.2-10.7c-0.1-2.2-0.1-4.5-0.1-7v0
			c0-2.9,0-6.2-0.1-9.9L2.5,2h36.2L38.6,3.5z"/>
		<path fill="#FFFFFF" d="M7.2,30.2c2,4.3,5.9,8.1,13.4,12.6c7.6-4.5,11.5-8.3,13.4-12.6L20.6,19.8L7.2,30.2z"/>
		<path fill="#FFFFFF" d="M5.2,20.7L20.6,8.9L36,20.6c0.2-4.4-0.1-9.5,0.2-15.9H20.6H5C5.3,11.2,5,16.3,5.2,20.7z"/>
	</g>
</g>
</svg>
